# Blender v2.79 (sub 0) OBJ File: 'ted.blend'
# www.blender.org
mtllib ted.mtl
o Teddy_Teddy.000
v 0.734477 -2.197633 -0.032781
v -0.205523 -3.097632 -0.032780
v 1.354476 -3.557632 -0.032780
v 0.794478 3.242362 -0.032784
v 1.734478 4.722360 -0.032785
v 0.514479 4.862360 -0.032785
v 1.834477 1.442363 -0.032783
v 0.014479 2.402363 -0.032784
v -0.545520 3.262362 -0.032784
v 1.814476 -0.457635 -0.032782
v 2.914476 0.922363 -0.032783
v 2.534477 4.022360 -0.032784
v 2.334477 2.662362 -0.032784
v 2.894474 -4.097632 -0.032780
v 2.114475 -2.717633 -0.032781
v -1.905520 1.062365 -0.032783
v -1.945520 0.222366 -0.032782
v -0.245522 -0.777634 -0.032782
v -1.225521 -2.097632 -0.032781
v 0.714478 1.102364 -0.032783
v -2.165518 4.782361 -0.032785
v -2.385519 3.022363 -0.032784
v -0.885519 4.802361 -0.032785
v -2.085519 1.782364 -0.032783
v -2.225520 -0.517634 -0.032782
v 3.574474 -1.337635 -0.032781
v 4.594474 -0.357636 -0.032782
v 3.014475 -0.077636 -0.032782
v -2.065521 -3.577631 -0.032780
v 4.494473 -1.157635 -0.032782
v -0.045523 -3.977631 -0.032780
v 1.454475 -5.017631 -0.032779
v 0.394476 -4.717630 -0.032780
v -1.245522 -4.697630 -0.032780
v -3.445518 1.222365 -0.032783
v -2.505520 -2.557632 -0.032781
v -3.005520 -4.657629 -0.032780
v -3.585520 -3.597630 -0.032780
v -3.185520 -2.797631 -0.032781
v -4.725517 1.642365 -0.032783
v -4.585517 0.662366 -0.032783
v -3.665518 0.282366 -0.032782
v -3.985517 2.122364 -0.032783
v -2.745518 4.442362 -0.032785
v -2.925518 3.502363 -0.032784
vt 0.424658 0.290448
vt 0.516634 0.202729
vt 0.363992 0.157895
vt 0.418787 0.820663
vt 0.326810 0.964912
vt 0.446184 0.978558
vt 0.317025 0.645224
vt 0.495108 0.738791
vt 0.549902 0.822612
vt 0.318982 0.460039
vt 0.211350 0.594542
vt 0.248532 0.896686
vt 0.268102 0.764133
vt 0.213307 0.105263
vt 0.289628 0.239766
vt 0.682975 0.608187
vt 0.686889 0.526316
vt 0.520548 0.428850
vt 0.616438 0.300195
vt 0.426614 0.612086
vt 0.708415 0.970760
vt 0.729941 0.799220
vt 0.583170 0.972710
vt 0.700587 0.678363
vt 0.714286 0.454191
vt 0.146771 0.374269
vt 0.046967 0.469786
vt 0.201566 0.497076
vt 0.698630 0.155945
vt 0.056752 0.391813
vt 0.500978 0.116959
vt 0.354207 0.015595
vt 0.457926 0.044834
vt 0.618395 0.046784
vt 0.833659 0.623782
vt 0.741683 0.255361
vt 0.790607 0.050682
vt 0.847358 0.153996
vt 0.808219 0.231969
vt 0.958904 0.664717
vt 0.945206 0.569201
vt 0.855186 0.532164
vt 0.886497 0.711501
vt 0.765166 0.937622
vt 0.782779 0.846004
vn 0.0000 0.0000 1.0000
usemtl None.001
s 1
f 1/1/1 2/2/1 3/3/1
f 4/4/1 5/5/1 6/6/1
f 7/7/1 4/4/1 8/8/1
f 9/9/1 4/4/1 6/6/1
f 10/10/1 11/11/1 7/7/1
f 12/12/1 4/4/1 13/13/1
f 3/3/1 14/14/1 15/15/1
f 7/7/1 13/13/1 4/4/1
f 16/16/1 17/17/1 18/18/1
f 19/19/1 2/2/1 1/1/1
f 9/9/1 8/8/1 4/4/1
f 20/20/1 10/10/1 7/7/1
f 9/9/1 21/21/1 22/22/1
f 5/5/1 4/4/1 12/12/1
f 20/20/1 7/7/1 8/8/1
f 23/23/1 9/9/1 6/6/1
f 24/24/1 8/8/1 9/9/1
f 24/24/1 16/16/1 8/8/1
f 16/16/1 18/18/1 20/20/1
f 20/20/1 18/18/1 10/10/1
f 17/17/1 25/25/1 18/18/1
f 26/26/1 27/27/1 28/28/1
f 10/10/1 28/28/1 11/11/1
f 29/29/1 2/2/1 19/19/1
f 28/28/1 27/27/1 11/11/1
f 10/10/1 26/26/1 28/28/1
f 27/27/1 26/26/1 30/30/1
f 3/3/1 2/2/1 31/31/1
f 10/10/1 18/18/1 1/1/1
f 32/32/1 14/14/1 3/3/1
f 32/32/1 3/3/1 33/33/1
f 15/15/1 1/1/1 3/3/1
f 10/10/1 1/1/1 15/15/1
f 18/18/1 19/19/1 1/1/1
f 33/33/1 3/3/1 31/31/1
f 25/25/1 19/19/1 18/18/1
f 29/29/1 34/34/1 2/2/1
f 16/16/1 35/35/1 17/17/1
f 36/36/1 19/19/1 25/25/1
f 37/37/1 34/34/1 29/29/1
f 36/36/1 29/29/1 19/19/1
f 38/38/1 37/37/1 29/29/1
f 39/39/1 29/29/1 36/36/1
f 38/38/1 29/29/1 39/39/1
f 35/35/1 40/40/1 41/41/1
f 42/42/1 35/35/1 41/41/1
f 8/8/1 16/16/1 20/20/1
f 24/24/1 35/35/1 16/16/1
f 17/17/1 35/35/1 42/42/1
f 24/24/1 43/43/1 35/35/1
f 35/35/1 43/43/1 40/40/1
f 21/21/1 9/9/1 23/23/1
f 9/9/1 22/22/1 24/24/1
f 21/21/1 44/44/1 22/22/1
f 44/44/1 45/45/1 22/22/1
